<svg id="visual" viewBox="0 0 1989 999" width="1989" height="999" xmlns="http://www.w3.org/2000/svg" xmlns:xlink="http://www.w3.org/1999/xlink" version="1.1"><rect x="0" y="0" width="1989" height="999" fill="#EFEFEF"></rect><defs><linearGradient id="grad1_0" x1="49.8%" y1="0%" x2="100%" y2="100%"><stop offset="10.180180180180177%" stop-color="#efefef" stop-opacity="1"></stop><stop offset="89.81981981981981%" stop-color="#efefef" stop-opacity="1"></stop></linearGradient></defs><defs><linearGradient id="grad2_0" x1="0%" y1="0%" x2="50.2%" y2="100%"><stop offset="10.180180180180177%" stop-color="#efefef" stop-opacity="1"></stop><stop offset="89.81981981981981%" stop-color="#efefef" stop-opacity="1"></stop></linearGradient></defs><g transform="translate(1989, 0)"><path d="M0 649.4C-120.4 636.3 -240.8 623.3 -324.7 562.4C-408.6 501.5 -456 392.7 -504 291C-552.1 189.3 -600.7 94.6 -649.3 0L0 0Z" fill="#0496FF"></path></g><g transform="translate(0, 999)"><path d="M0 -649.3C120.2 -636.2 240.3 -623 324.7 -562.4C409 -501.7 457.6 -393.6 505.8 -292C553.9 -190.4 601.6 -95.2 649.4 0L0 0Z" fill="#0496FF"></path></g></svg>