<svg id="visual" viewBox="0 0 1989 969" width="1989" height="969" xmlns="http://www.w3.org/2000/svg" xmlns:xlink="http://www.w3.org/1999/xlink" version="1.1"><rect x="0" y="0" width="1989" height="969" fill="#EFEFEF"></rect><defs><linearGradient id="grad1_0" x1="51.3%" y1="0%" x2="100%" y2="100%"><stop offset="8.947368421052627%" stop-color="#efefef" stop-opacity="1"></stop><stop offset="91.05263157894738%" stop-color="#efefef" stop-opacity="1"></stop></linearGradient></defs><defs><linearGradient id="grad2_0" x1="0%" y1="0%" x2="48.7%" y2="100%"><stop offset="8.947368421052627%" stop-color="#efefef" stop-opacity="1"></stop><stop offset="91.05263157894738%" stop-color="#efefef" stop-opacity="1"></stop></linearGradient></defs><g transform="translate(1989, 0)"><path d="M0 678.3C-79.8 647.4 -159.6 616.5 -243.8 588.5C-327.9 560.5 -416.4 535.4 -479.6 479.6C-542.9 423.9 -580.9 337.6 -609.8 252.6C-638.7 167.5 -658.5 83.8 -678.3 0L0 0Z" fill="#34D1BF"></path></g><g transform="translate(0, 969)"><path d="M0 -678.3C82.7 -644.2 165.4 -610 236.1 -570C306.8 -530 365.5 -484.2 434.9 -434.9C504.2 -385.5 584.3 -332.6 626.7 -259.6C669 -186.5 673.7 -93.3 678.3 0L0 0Z" fill="#34D1BF"></path></g></svg>